<?xml version="1.0" encoding="utf-8"?>
<!-- Generator: Adobe Illustrator 15.0.0, SVG Export Plug-In . SVG Version: 6.00 Build 0)  -->
<!DOCTYPE svg PUBLIC "-//W3C//DTD SVG 1.1//EN" "http://www.w3.org/Graphics/SVG/1.1/DTD/svg11.dtd">
<svg version="1.1" id="Layer_1" xmlns="http://www.w3.org/2000/svg" xmlns:xlink="http://www.w3.org/1999/xlink" x="0px" y="0px"
	 width="26px" height="26px" viewBox="0 0 26 26" enable-background="new 0 0 26 26" xml:space="preserve">
<path d="M18.617,9.165V6.478h-0.663l-3.08-1.333l-0.172,0.398l2.158,0.935h-2.669v0.496c-1.756,0.038-4.226,0.205-4.83,2.01
	c-0.48,1.43,1.178,2.908,2.032,3.811c1.129,1.19,2.844,2.55,3.229,4.228c0.488,2.128-5.333,2.334-6.372,2.427
	c-0.68,0.06-1.312,1.48-0.449,1.404c2.412-0.214,6.232-0.357,7.752-2.642c0.979-1.471,0.024-3.058-0.942-4.237
	c-1.16-1.416-2.662-2.593-3.664-4.133c-0.271-0.418-0.429-0.813-0.25-0.919c0.962-0.573,2.375-0.542,3.493-0.554v0.797H18.617z"/>
</svg>
